# xmcd
#
# Track frame offsets:
#	183
#	11183
#	23765
#	34983
#	46558
#	59808
#	71468
#	83408
#	96800
#	110845
#	123858
#	137633
#	151108
#	163208
#	175358
#	188583
#	201683
#	215433
#	228408
#	242958
#
# Disc length: 3464 seconds
#
# Revision: 1
# Processed by: cddbd v1.5PL3 Copyright (c) Steve Scherf et al.
# Submitted via: audiograbber 1.83.01
#
DISCID=180d8614
DTITLE=Various Artist - Bix Beiderbecke Gold Collection
DYEAR=1900
DGENRE=EN
TTITLE0=Bix Beiderbecke and The Wolverines - Fidgety Feet
TTITLE1=Bix Beiderbecke and The Wolverines - Jazz Me Blues
TTITLE2=Bix Beiderbecke and The Wolverines - Copenhagen
TTITLE3=Bix Beiderbecke and The Wolverines - Riverboat Shuffle
TTITLE4=Bix Beiderbecke and The Wolverines - Royal Garden Blues
TTITLE5=Bix Beiderbecke and The Wolverines - Tiger Rag
TTITLE6=Bix Beiderbecke and The Wolverines - Sensation
TTITLE7=Bix Beiderbecke and The Wolverines - Tia Juana
TTITLE8=Jean Goldkette and His Orchestra - I Didn't Know
TTITLE9=Jean Goldkette and His Orchestra - Idolizing
TTITLE10=Jean Goldkette and His Orchestra - Sunday
TTITLE11=Jean Goldkette and His Orchestra - Hoosier Sweetheart
TTITLE12=Jean Goldkette and His Orchestra - My Pretty Girl
TTITLE13=Jean Goldkette and His Orchestra - Sunny Disposish
TTITLE14=Jean Goldkette and His Orchestra - Blue River
TTITLE15=Jean Goldkette and His Orchestra - Clementine
TTITLE16=Bix and The Gang - In a Mist
TTITLE17=Bix and The Gang - At the Jazz Band Ball
TTITLE18=Bix and The Gang - Ol' Man River
TTITLE19=Bix and The Gang - Rhythm King
EXTD=
EXTT0=
EXTT1=
EXTT2=
EXTT3=
EXTT4=
EXTT5=
EXTT6=
EXTT7=
EXTT8=
EXTT9=
EXTT10=
EXTT11=
EXTT12=
EXTT13=
EXTT14=
EXTT15=
EXTT16=
EXTT17=
EXTT18=
EXTT19=
PLAYORDER=
